<svg xmlns="http://www.w3.org/2000/svg" width="256" height="256"><path fill="#1976D2" fill-opacity=".016" fill-rule="evenodd" d="M0 128.004v128.004l128.25-.254 128.25-.254.254-127.75L257.008 0H0zm.485.496c0 70.4.119 99.053.265 63.672s.146-92.98 0-128S.485 58.1.485 128.5"/><path fill="#1976D2" fill-opacity=".223" fill-rule="evenodd" d="M104.587 2.037c-4.351.493-11.101 1.874-15 3.067C83.094 7.092 66.181 14.527 65 15.913c-.275.323-2.075 1.444-4 2.491-5.644 3.069-16.22 12.047-22.072 18.735C25.433 52.562 17.269 67.063 11.983 85c-4.081 13.847-5.264 36.146-2.562 48.289 3.279 14.741 11.555 26.62 22.079 31.695 4.107 1.98 6.608 2.421 14 2.464 7.759.045 9.796-.321 14.776-2.655 9.581-4.489 21.475-18.165 25.761-29.62l2.072-5.538-4.522-4.522-4.523-4.522-2.346 2.204c-1.291 1.213-3.249 2.205-4.352 2.205-1.112 0-3.809 2.007-6.05 4.5-3.68 4.096-4.457 4.5-8.645 4.5-3.749 0-5.275-.592-8.238-3.193-8.811-7.736-12.319-24.266-9.362-44.115 2.643-17.744 12.446-34.924 25.292-44.325 7.214-5.279 18.141-10.647 25.028-12.296 9.64-2.308 28.609-.967 28.609 2.022 0 .515-2.642 4.262-5.872 8.326-13.541 17.04-18.424 30.343-21.209 57.777-1.148 11.306-.701 28.05 1.088 40.804 3.507 25.003 4.13 52.323 1.458 64-3.126 13.664-10.887 25.664-18.148 28.06-1.952.645-5.737.962-8.409.705-13.859-1.331-21.14-15.542-15.953-31.131L54.163 194 52 190.5c-1.4-2.265-2.931-3.5-4.339-3.5-1.197 0-7.087 1.575-13.09 3.5S23.091 194 22.4 194c-.692 0-2.865 1.516-4.829 3.368-4.154 3.918-4.509 7.027-2.013 17.617C19.38 231.2 30.584 246.272 43.5 252.573c5.792 2.826 6.503 2.927 20.5 2.927 14.304 0 14.593-.044 21.409-3.272 5.209-2.467 8.928-5.323 15.12-11.613 17.571-17.851 26.797-37.252 29.537-62.115.606-5.5 1.231-10.9 1.39-12s.382-3.575.496-5.5c.195-3.275 3.777 12.976 10.303 46.733 1.929 9.984 3.569 15.323 6.674 21.738 5.436 11.231 13.732 20.206 22.182 23.998 5.544 2.488 7.012 2.721 14.772 2.346 11.504-.557 18.712-4.238 28.934-14.773 9.578-9.873 22.183-28.843 22.183-33.386 0-.783-1.765-3.018-3.922-4.966-4.289-3.876-5.369-3.926-12.794-.6-3.225 1.444-5.768 4.002-10.813 10.876-8.067 10.991-11.254 13.493-16.167 12.696-6.212-1.008-8.137-3.81-12.818-18.662-4.077-12.931-7.603-26.216-7.094-26.725.268-.269 1.978.908 3.798 2.614s3.887 3.104 4.591 3.106c.705.003 1.541.68 1.857 1.505s1.765 1.514 3.219 1.532c3.197.038 6.143 2.1 6.143 4.298 0 .885-.874 3.165-1.941 5.066-1.738 3.093-1.78 3.591-.401 4.735 1.269 1.054 2.179.935 5.167-.676 1.995-1.075 4.095-2.898 4.666-4.05 1.235-2.492 11.413-12.641 17.029-16.981 2.189-1.692 6.455-4.428 9.48-6.08 15.155-8.274 17.404-10.677 13.461-14.38-1.353-1.272-2.461-1.784-2.461-1.138 0 1.294-6.77 1.615-8.638.409-.805-.52-.439-2.179 1.25-5.671 1.313-2.715 2.388-5.465 2.388-6.111s1.147-2.864 2.549-4.931c1.403-2.066 2.303-4.004 2-4.306s-.601.088-.664.867-.459-.374-.88-2.564c-.876-4.558-.394-6.519 1.602-6.519.881 0 1.393 1.102 1.393 3 0 4.116.991 3.725 4.5-1.775 2.901-4.547 3.459-6.842 5.062-20.83.814-7.098-.79-12.185-2.043-6.48l-.714 3.25-2.359-2.216c-1.297-1.219-3.565-3.956-5.038-6.082-1.525-2.2-3.502-3.867-4.586-3.867-1.803 0-1.779.23.457 4.25 2.213 3.98 2.324 4.948 1.756 15.25-.622 11.279-2.835 18.865-8.27 28.341a6519 6519 0 0 0-4.383 7.659c-2.713 4.751-10.207 12.832-16.132 17.395-4.913 3.783-5.403 5.839-1.5 6.289 1.54.177 2.75.932 2.75 1.716 0 2.175-10.22 7.26-13.875 6.904-2.719-.264-3.166-.727-3.438-3.554-.294-3.044-.556-3.25-4.128-3.25-5.643 0-6.692-1.825-4.753-8.265 4.366-14.497 6.961-18.36 22.662-33.735 7.021-6.875 13.28-13.492 13.909-14.704s1.438-5.013 1.796-8.446c.461-4.404 1.561-7.729 3.74-11.296 1.698-2.78 3.425-5.204 3.837-5.387 2.302-1.023.215-5.64-5.469-12.1-5.644-6.413-6.569-7.067-10-7.067-2.541 0-4.489-.708-5.942-2.161l-2.16-2.16 2.375-1.924c2.381-1.928 6.274-2.011 11.696-.252 3.397 1.103 2.698-.817-.874-2.398-4.371-1.934-17.481-.854-22.562 1.86-4.054 2.165-11.272 9.694-11.298 11.785-.009.688-.515 1.25-1.124 1.25-.641 0-.884-.95-.577-2.25 1.507-6.384 1.656-17.942.337-26.25-4-25.206-17.723-41.697-40.754-48.972-8.904-2.813-24.996-3.887-37.311-2.491m30.298 43.213c-.651 1.237-1.499 2.475-1.883 2.75-2.155 1.541-6.916 14.507-8.019 21.836-1.256 8.35-1.104 13.991.976 36.164 1.725 18.379 1.699 18.342 8.13 11.911 5.155-5.155 11.431-18.122 13.509-27.911 3.152-14.849.278-32.775-6.842-42.691-3.543-4.932-4.23-5.173-5.871-2.059m87.653 24.812c.67 1.084 4.762 3.019 7.462 3.528.947.179.762-.234-.5-1.119-1.1-.772-2.544-1.868-3.208-2.437-1.587-1.359-4.597-1.337-3.754.028M235 78.5c1.292 1.375 2.574 2.5 2.849 2.5s-.557-1.125-1.849-2.5-2.574-2.5-2.849-2.5.557 1.125 1.849 2.5m-19 7.531c0 .533.675.969 1.5.969s1.5-.177 1.5-.393-.675-.652-1.5-.969-1.5-.139-1.5.393M191 87c0 .55.45 1 1 1s1-.45 1-1-.45-1-1-1-1 .45-1 1m-11.944 6.672c-1.18 3.205-3.363 8.297-4.851 11.314-2.872 5.825-14.72 21.286-18.156 23.692-2.82 1.976-2.57 4.235.943 8.496 5.074 6.156 10.618 19.148 12.301 28.826.239 1.375.496-.354.571-3.842.1-4.68.66-7.009 2.136-8.885 1.1-1.399 2-3.575 2-4.836s.675-2.969 1.5-3.794 1.5-1.913 1.5-2.417.889-1.721 1.976-2.705c1.087-.983 1.773-2.118 1.524-2.521s.437-1.538 1.524-2.521c1.087-.984 1.976-2.369 1.976-3.077 0-.709.847-1.882 1.883-2.608 3.115-2.181 10.117-11.601 10.117-13.61 0-1.031-.9-2.689-2-3.684s-2-2.614-2-3.596-.408-2.038-.906-2.346-2.279-3.493-3.956-7.077-3.699-7.444-4.493-8.577c-1.372-1.96-1.548-1.775-3.589 3.768m68.023 5.911c.048 1.165.285 1.402.604.605.289-.722.253-1.585-.079-1.917s-.568.258-.525 1.312M180.5 183c-.34.55-.141 1 .441 1s1.059-.45 1.059-1-.198-1-.441-1-.719.45-1.059 1"/><path fill="#1976D2" fill-opacity=".246" fill-rule="evenodd" d="M103 2.697c-8.691 1.121-22.187 5.82-31 10.792-26.556 14.985-49.865 44.906-57.675 74.034-2.366 8.823-2.684 11.886-2.75 26.477-.082 17.96.682 22.348 5.614 32.28 3.412 6.871 9.163 12.729 15.618 15.908 3.73 1.838 6.35 2.312 12.768 2.312 7.49 0 8.698-.309 16.662-4.255 9.802-4.857 16.118-11.043 20.855-20.427 3.571-7.075 3.673-8.818.515-8.818-2.632 0-3.607-1.645-3.607-6.082 0-1.605-.269-2.918-.597-2.918s-3.5 2.66-7.048 5.912c-4.92 4.508-7.628 6.194-11.403 7.1-2.724.653-4.952 1.593-4.952 2.088 0 1.698-4.706.899-8.102-1.377-4.489-3.007-9.513-10.629-11.599-17.599-1.63-5.443-2.219-19.263-1.008-23.624.306-1.1.597-2.225.648-2.5.05-.275.528.175 1.061 1 .765 1.183.973.959.985-1.062.031-5.261 4.255-18.747 8.75-27.938 4.028-8.237 5.984-10.834 14.705-19.534 15.225-15.185 25.282-19.194 45.814-18.263 9.064.411 14.748 1.83 17.642 4.404.218.194-1.357 2.301-3.5 4.682C102.449 56.347 96.532 71.88 94.463 106c-.478 7.889.007 16.806 1.95 35.858 3.014 29.548 3.385 51.738 1.037 62.06-3.919 17.234-12.54 27.314-24.519 28.669-3.799.43-6.295 1.241-6.845 2.223-.775 1.385-1.337 1.366-5.397-.184-6.122-2.339-12.138-9.032-14.122-15.713-2.058-6.931-1.981-8.45.553-10.81 1.166-1.086 2.904-4.366 3.863-7.289l1.743-5.314-2.613-.532c-2.231-.455-2.59-1.019-2.454-3.857.152-3.171.023-3.297-2.787-2.735C38.69 189.612 22 195.195 22 196.026c0 .479-1.125 2.085-2.5 3.569-2.833 3.056-2.998 5.256-1.068 14.253 3.386 15.79 14.204 30.243 27.266 36.43 6.435 3.048 7.423 3.222 18.302 3.222 11.011 0 11.819-.147 19-3.465 7.371-3.405 15.066-8.467 20.002-13.158 7.012-6.664 15.138-19.236 18.988-29.377 1.253-3.3 2.652-6.9 3.11-8s1.303-4.812 1.878-8.248 1.283-7.486 1.573-9c1.064-5.553 1.498-13.79.621-11.769-.743 1.71-.944 1.503-1.458-1.5-.328-1.915-.902-8.77-1.275-15.233-.561-9.719-.437-11.75.719-11.75 5.007 0 8.005 11.036 18.471 68 2.916 15.866 12.337 31.815 22.944 38.841 18.235 12.078 45.182-.968 62.671-30.341 3.923-6.589 5.009-10.154 2.965-9.736-2.596.53-5.084-1.779-5.396-5.007-.206-2.138-.91-3.354-2.068-3.573-2.123-.402-8.941 6.216-14.01 13.6-4.504 6.561-10.708 11.839-14.984 12.748-1.788.38-3.99 1.342-4.894 2.137-1.433 1.262-2.085 1.263-5.101.002-6.964-2.909-9.773-9.783-20.299-49.671-6.904-26.158-8.669-30.846-14.873-39.497-4.496-6.269-4.633-8.942-.53-10.372 7.277-2.537 19.681-18.463 24.636-31.631 4.071-10.819 6.974-28.5 4.678-28.5-1.326 0-1.863-2.001-3.355-12.5-3.061-21.541-13.06-35.927-31.335-45.082-5.048-2.529-10.447-5.57-11.997-6.758-2.523-1.932-4.156-2.173-15.5-2.287-6.975-.07-14.256.076-16.181.324m28.93 29.887c-1.671 2.013-.125 4.782 2.922 5.236 2.393.356 2.848-1.643 1.113-4.886-1.257-2.348-2.301-2.439-4.035-.35m3.692 10.453c-5.702 6.776-9.824 15.706-11.666 25.269-.509 2.644-1.564 5.444-2.343 6.224-3.158 3.158-3.165 11.341-.03 34.97 1.77 13.341 2.026 14.221 4.531 15.561 1.561.836 2.445.642 4.183-.915a808 808 0 0 1 6.502-5.721C145.171 111.13 152 92.234 152 76.366c0-12.955-5.159-28.409-11.461-34.33l-2.276-2.137zm59.377 27.504c-1.375.731-3.85 2.762-5.5 4.513-2.9 3.078-2.919 3.159-.576 2.442 1.333-.407 2.908-1.123 3.5-1.59 7.513-5.925 8.844-8.696 2.576-5.365m6.54 7.337c-.328 1.032-1.687 3.147-3.02 4.699-1.334 1.551-2.558 3.955-2.722 5.34-.419 3.554-6.19 5.295-8.243 2.487-2.405-3.288-2.898-.677-.677 3.584 1.167 2.24 2.133 4.847 2.145 5.793s.902 2.844 1.978 4.219 1.966 3.218 1.978 4.095.922 2.41 2.022 3.405c2.584 2.339 2.549 5.951-.083 8.583-1.146 1.146-1.841 2.327-1.544 2.623 1.073 1.073 9.902-5.717 15.788-12.14 3.309-3.611 6.386-6.566 6.838-6.566s2.612-1.172 4.8-2.605c3.225-2.111 4.101-3.369 4.623-6.633.354-2.216.492-4.181.305-4.368-.186-.186-1.97 1.006-3.964 2.65-3.48 2.869-5.381 2.731-4.216-.306.328-.855-.484-2.122-1.997-3.113-2.908-1.906-3.305-5.133-.952-7.733 1.956-2.162.934-4.196-1.689-3.363-1.058.336-3.339-.096-5.07-.959-4.113-2.052-5.574-1.981-6.3.308M185 80.559c0 .857.45 1.281 1 .941s1-1.041 1-1.559-.45-.941-1-.941-1 .702-1 1.559m8 .441c0 2.28 2.21 2.656 3.869.658 1.321-1.592.505-2.658-2.036-2.658-1.166 0-1.833.727-1.833 2m9.565 1.895c-.305.493.182 1.178 1.082 1.523 2.092.803 5.561-.272 4.809-1.49-.734-1.187-5.163-1.211-5.891-.033m-5.993 9.41c1.52 4.96 4.52 5.991 8.963 3.08 3.01-1.972 3.555-6.039.596-4.455-1.027.55-2.04.854-2.25.676s-2.091-.587-4.181-.91c-3.557-.549-3.757-.446-3.128 1.609m1.095 9.362c-1.253 1.252-.67 4.395.929 5.008 1.154.443 1.438 1.404 1.025 3.469-.422 2.109-.185 2.856.904 2.856.811 0 1.475-.645 1.475-1.433s.841-1.699 1.868-2.025 2.626-1.43 3.552-2.454c1.593-1.76 1.538-1.976-1.003-3.974-2.589-2.037-7.37-2.827-8.75-1.447m17.857 8.063c-1.58 1.98-3.45 5.214-4.155 7.186-1.328 3.715-1.817 10.084-.773 10.084 1.906 0 6.406-4.51 7.251-7.267 1.54-5.025 2.34-12.499 1.4-13.08-.467-.289-2.142 1.096-3.723 3.077m23.143-1.063c-1.526 1.525-.642 6.106 1.275 6.608 2.384.623 3.058.019 3.058-2.742 0-3.128-2.68-5.52-4.333-3.866m5.001 13.667c-.458 3.209-.571 6.096-.25 6.417 1.243 1.243 1.677-.757 1.385-6.388l-.303-5.863zM174.787 151c-.242 1.65-.069 3 .386 3s.827-1.35.827-3-.174-3-.387-3c-.212 0-.584 1.35-.826 3m51.553-1.783c-.528.706-1.789 3.195-2.802 5.533s-2.189 4.25-2.613 4.25-2.043 1.245-3.598 2.767-4.739 4.259-7.077 6.084-4.25 3.709-4.25 4.188 1.575 1.166 3.5 1.527 3.5.978 3.5 1.371c0 2.389-10.989 9.243-16.903 10.542-3.674.807-7.097-1.444-7.097-4.665 0-2.241-2.693-3.521-4.212-2.002-.769.769-.711 1.96.205 4.171 1.351 3.261 3.672 5.007 6.691 5.032 4.086.035 4.782 1.476 2.985 6.182-2.054 5.378-2.062 5.803-.107 5.803.859 0 5.573-3.891 10.476-8.646 4.902-4.755 10.162-9.463 11.688-10.461 6.929-4.531 17.778-13.555 18.06-15.021.172-.891-.413-1.899-1.3-2.239-2.169-.832-6.248 1.428-10.432 5.782-3.226 3.356-5.882 4.423-7.352 2.954-1.199-1.199 3.246-7.628 10.281-14.869 1.604-1.65 3.051-4.303 3.216-5.895.324-3.12-1.298-4.475-2.859-2.388m-54.688 12.247c-1.416 3.692-.688 10.193 1.348 12.036 1.977 1.789 2 1.747 1.965-3.595-.04-6.025-2.163-11.436-3.313-8.441"/><path fill="#1976D2" fill-opacity=".626" fill-rule="evenodd" d="M97.5 4.469c-.55.172-4.375 1.32-8.5 2.552-36.497 10.9-67.621 49.813-73.169 91.479-1.939 14.565-2.047 17.746-.909 26.789 1.211 9.62 2.356 13.735 5.483 19.711 5.283 10.098 11.05 14.167 22.831 16.11 8.422 1.388 14.528.5 21.844-3.177 5.303-2.666 12.436-9.725 15.866-15.701l3.023-5.267-2.935 1.517c-3.916 2.025-4.147 1.945-3.009-1.047.862-2.268 1.437-14.435.682-14.435-.162 0-3.07 2.7-6.464 6-3.393 3.3-6.877 6-7.741 6-1.268 0-1.363.391-.491 2.021 1.649 3.081.384 3.979-5.61 3.979-6.822 0-11.948-2.485-16.786-8.136-13.251-15.482-12.773-52.528.944-73.165 2.866-4.313 3.191-4.537 3.191-2.208 0 2.955 1.287 4.676 1.999 2.672s9.803-13.652 13.57-17.389c11.658-11.566 23.555-17.659 38.509-19.725 8.325-1.15 19.176.068 25.298 2.84l4.626 2.095-3.548 3.758c-14.515 15.377-22.213 30.715-25.663 51.133-2.162 12.793-2.608 38.693-.941 54.625 2.912 27.846 3.334 33.373 3.366 44.162.054 17.893-2.904 29.43-10.088 39.348-3.937 5.434-6.13 7.332-11.628 10.06-4.757 2.36-4.952 2.696-2.575 4.434 1.472 1.077 1.212 1.378-2.146 2.486-2.278.752-6.185 1.047-9.675.73-16.764-1.52-27.687-19.667-22.404-37.22 1.021-3.393 1.153-5.374.445-6.697-.553-1.033-.726-2.762-.383-3.841.681-2.145-.522-2.517-3.276-1.015-.955.521-5.111 1.906-9.236 3.077a1089 1089 0 0 0-8.625 2.473c-1.84.563-2.703 12.961-1.31 18.811 3.089 12.967 12.052 25.717 21.815 31.03 2.783 1.515 8.11 3.4 11.84 4.191 18.138 3.843 32.947-.302 46.115-12.908 7.62-7.294 18.18-22.621 15.586-22.621-.435 0-1.834.978-3.107 2.174-3.033 2.85-2.92 1.57.623-7.022 1.616-3.918 4.168-11.742 5.672-17.388 2.524-9.476 2.751-11.914 2.96-31.764.273-25.805.146-24.001 1.681-23.995 1.962.007 7.576 5.734 9.698 9.892 1.787 3.504 5.261 15.636 6.472 22.603.287 1.65 1.401 7.5 2.475 13s2.689 14.05 3.588 19c2.871 15.796 3.712 18.844 7.313 26.5 4.965 10.558 13.681 19.211 21.699 21.542 17.726 5.153 34.883-2.631 48.845-22.161 2.013-2.816 3.67-5.516 3.682-6 .012-.485.902-2.006 1.978-3.381 2.352-3.007 2.485-4 .535-4-.805 0-1.967.939-2.581 2.086-1.514 2.829-2.248 1.817-1.022-1.408 1.18-3.103-.759-12.678-2.567-12.678-.639 0-4.459 4.349-8.489 9.664s-9.474 11.206-12.098 13.091c-3.964 2.848-4.671 3.824-4.182 5.773.519 2.065.153 2.429-3.043 3.028-4.855.911-11.778-1.137-14.913-4.412-4.957-5.178-7.587-12.708-17.614-50.432-6.492-24.422-8.675-29.979-14.988-38.163-2.681-3.475-4.038-6.254-4.038-8.269 0-3.767 2.176-5.841 4.667-4.447 1.249.699 2.591.568 4.551-.446 3.412-1.764 12.265-12.421 16.171-19.466 2.849-5.138 2.272-5.569-2.139-1.598-2.834 2.552-2.815 1.951.183-5.652 3.789-9.61 5.479-16.427 6.443-25.986 3.146-31.198-9.982-53.782-36.219-62.307C132.736 9.129 129.606 8.71 119 8.614c-6.875-.063-15.65.24-19.5.673l-7 .786 3.75-2.572c4.471-3.068 4.929-4.177 1.25-3.032m34.19 25.685C128.101 32.162 130.455 41 134.579 41c1.002 0 .452 1.493-1.822 4.946-3.564 5.412-4.757 6.157-4.757 2.971 0-3.326-2.258-1.733-5.174 3.648-4.247 7.838-6.195 19.741-5.551 33.908.698 15.332 3.533 36.395 5.271 39.154 1.671 2.654 5.508 3.683 8.908 2.391 2.06-.784 2.473-1.461 2.011-3.302-.453-1.805.01-2.632 2.097-3.749 6.431-3.442 15.004-16.903 18.049-28.339.782-2.936 1.37-10.163 1.377-16.91.013-12.791-1.658-19.946-6.679-28.593-2.445-4.212-3.543-5.636-9.559-12.395-1.512-1.7-2.75-3.411-2.75-3.803 0-1.278-2.581-1.741-4.31-.773m78.712 64.382c-.451 1.797-.219 2.959.704 3.53 1.854 1.145 3.138-.324 2.729-3.122-.482-3.293-2.645-3.55-3.433-.408M215 114.059c0 1.132.45 1.781 1 1.441s1-1.266 1-2.059-.45-1.441-1-1.441-1 .927-1 2.059m-1.457 3.872c-.317.512-.118 1.213.441 1.559s1.016-.074 1.016-.931c0-1.757-.6-2.015-1.457-.628"/></svg>